# xmcd
#
# Track frame offsets:
#	182
#	11942
#	27630
#	41030
#	56680
#	69655
#	81055
#	95142
#	110780
#	124172
#	133957
#	149747
#	159980
#	171202
#	187397
#	203072
#	216652
#	232025
#	243737
#	255750
#
# Disc length: 3624 seconds
#
# Revision: 0
# Processed by: cddbd v1.5PL3 Copyright (c) Steve Scherf et al.
# Submitted via: audiograbber 1.82.02
#
DISCID=450e2614
DTITLE=Various Artist - Vyhravala kapela
DYEAR=1991
DGENRE=
TTITLE0=Vyhravala kapela
TTITLE1=Zelene haje
TTITLE2=Driv nez se rozloucime
TTITLE3=Pod jednou strechou
TTITLE4=Kvetinova
TTITLE5=Vy zvonky v Lorete
TTITLE6=Stesti na rozcesti
TTITLE7=Ach, boze, lasko
TTITLE8=Na strani
TTITLE9=Hanacka
TTITLE10=Zbraslavska
TTITLE11=Kdo jednou miloval
TTITLE12=Staroceska muzika
TTITLE13=Haja, haja
TTITLE14=Uz je to davno
TTITLE15=Kdyby ty muziky nebyly
TTITLE16=Jetelicek u vody
TTITLE17=Panenko modrooka
TTITLE18=Skoda lasky
TTITLE19=Jeste tu posledni
EXTD=
EXTT0=
EXTT1=
EXTT2=
EXTT3=
EXTT4=
EXTT5=
EXTT6=
EXTT7=
EXTT8=
EXTT9=
EXTT10=
EXTT11=
EXTT12=
EXTT13=
EXTT14=
EXTT15=
EXTT16=
EXTT17=
EXTT18=
EXTT19=
PLAYORDER=
